# xmcd
#
# Track frame offsets: 
#        182
#        13837
#        29130
#        51552
#        66900
#        91072
#        111507
#        134535
#        155865
#        171107
#
# Disc length: 2650 seconds
#
# Revision: 2
# Processed by: cddbd v1.5.2PL0 Copyright (c) Steve Scherf et al.
# Submitted via: ExactAudioCopyFreeDBPlugin 1.0
#
DISCID=970a580a
DTITLE=Ry Cooder - Borderline
DYEAR=1980
DGENRE=Rock
TTITLE0=634-5789
TTITLE1=Speedo
TTITLE2=Why Don't You Try Me
TTITLE3=Down On The Boondocks
TTITLE4=Johnny Porter
TTITLE5=The Way We Make A Broken Heart
TTITLE6=Crazy 'Bout An Automobile (Every Woman I Know)
TTITLE7=The Girls From Texas
TTITLE8=Borderline
TTITLE9=Never Make Your Move Too Soon
EXTD=Warner Bros.\n7599-23489-2
EXTT0=
EXTT1=
EXTT2=
EXTT3=
EXTT4=
EXTT5=
EXTT6=
EXTT7=
EXTT8=
EXTT9=
PLAYORDER=
